<?xml version="1.0" encoding="UTF-8"?>
<svg id="Capa_1" xmlns="http://www.w3.org/2000/svg" version="1.1" viewBox="0 0 16 16">
  <!-- Generator: Adobe Illustrator 29.0.0, SVG Export Plug-In . SVG Version: 2.1.0 Build 186)  -->
  <defs>
    <style>
      .st0 {
        fill: #fff;
      }
    </style>
  </defs>
  <rect width="16" height="16"/>
  <g>
    <path class="st0" d="M4.89867,3.9087807v3.210962c0,.2551008-.1757087.4765952-.4241193.5346349l-.5601237.1308699c-.0471243.0110103-.0471244.0780954,0,.0891058l.5601242.1308705c.2484104.05804.4241188.2795342.4241188.5346348v.4731094c0,.4172711-.0787047.8144025-.2342598,1.1932372-.157387.3788347-.3696864.7064209-.6350438.9827697-.2672005.2763488-.5856383.4959646-.9516609.6588362-.3678545.1628827-.7540056.2434081-1.1584646.2434081h-.5838064v-2.3864631h.5838064c.1665354,0,.3074576-.0622288.4209237-.188507s.1701992-.2946455.1701992-.503281v-.4731095c0-.2551007-.1757085-.4765949-.4241189-.5346349l-.5601244-.1308704c-.0471243-.0110104-.0471243-.0780954,0-.0891058l.5601246-.1308707c.2484103-.05804.4241188-.2795342.4241188-.5346348v-3.2109614h2.3883062Z"/>
    <path class="st0" d="M12.2356883,3.9087807h1.9325987v3.2109867c0,.2550889.1756927.4765762.4240883.5346277l.5601434.1309087c.0471273.0110139.0471235.0781041-.0000051.0891126l-.5600776.1308263c-.2484249.0580286-.424149.2795297-.424149.5346419v3.2109363h-2.3883062v-3.312511l-.6679845,1.2664461h-1.9216185l-.6679957-1.2664461v3.312511h-2.3864631v-3.2109619c0-.2551007.1757085-.4765949.4241189-.5346348l.5601245-.1308705c.0471243-.0110104.0471243-.0780954,0-.0891058l-.5601245-.1308705c-.2484104-.0580399-.4241189-.2795342-.4241189-.5346349v-3.2109619h1.927103l2.0790167,3.9493867,2.0936495-3.9493867Z"/>
  </g>
</svg>